# xmcd
#
# Track frame offsets:
#	150
#	9646
#	27553
#	44410
#	71409
#	84289
#	101769
#	118963
#	134981
#	151369
#	169795
#	182059
#	194288
#	206098
#	221539
#	234955
#	254272
#
# Disc length: 3675 seconds
#
# Revision: 1
# Processed by: cddbd v1.5.2PL0 Copyright (c) Steve Scherf et al.
# Submitted via: audiograbber 1.83.01
#
DISCID=f70e5911
DTITLE=Les Voix de la Soul - CD 1
DYEAR=2003
DGENRE=Soul
TTITLE0=Aretha Franklin - Think
TTITLE1=Marvin Gaye - Sexual Healing
TTITLE2=The Pointers Sisters - I'm So Excited
TTITLE3=The Jacksons - Can You Feel It
TTITLE4=The Supremes - Stop In The Name Of Love
TTITLE5=Patty Labelle - Lady Marmelade
TTITLE6=Luther Vandross - Never Too Much
TTITLE7=Sister Sledge - We Are Family
TTITLE8=The Emotions - Best Of My Love
TTITLE9=Diana Ross - Upside Down
TTITLE10=The Platters - Only You
TTITLE11=The temptations - My Girl
TTITLE12=Otis Redding - Sittin' On The Dock Of the Bay
TTITLE13=Harold Melvin and The Blue Notes - if You Don't Now Me By Now
TTITLE14=Ben E. King - Stand By Me
TTITLE15=Bill Withers - Lean On Me
TTITLE16=Billy Paul - Me and Mrs Jones
EXTD=
EXTT0=
EXTT1=
EXTT2=
EXTT3=
EXTT4=
EXTT5=
EXTT6=
EXTT7=
EXTT8=
EXTT9=
EXTT10=
EXTT11=
EXTT12=
EXTT13=
EXTT14=
EXTT15=
EXTT16=
PLAYORDER=
